<svg width="77" height="65" viewBox="0 0 77 65" fill="none" xmlns="http://www.w3.org/2000/svg">
<path d="M38.4404 0.00109753C38.1038 0.0112718 37.7793 0.114026 37.5131 0.294773L0.618193 25.5157C-0.0808684 25.9932 -0.205701 26.8767 0.339348 27.4891C0.884397 28.1016 1.89296 28.2109 2.59202 27.7334L4.81336 26.2156V63.1619C4.81346 63.9379 5.53159 64.5671 6.41749 64.5671H28.6058C28.779 64.5922 28.9558 64.5922 29.129 64.5671H47.8553C48.0285 64.5922 48.2053 64.5922 48.3785 64.5671H70.5825C71.4684 64.5671 72.1865 63.9379 72.1866 63.1619V26.2156L74.4079 27.7334C74.8601 28.0424 75.4661 28.1165 75.9976 27.9278C76.5291 27.7392 76.9053 27.3165 76.9846 26.8189C77.0638 26.3214 76.834 25.8246 76.3818 25.5157L64.166 17.1664V6.95064H54.5412V10.5846L39.4869 0.294773C39.1884 0.0920191 38.8178 -0.0119716 38.4404 0.00109753ZM38.5 3.18768L68.9783 24.0226V61.7566H49.7288V35.0562H27.2711V61.7566H8.0216V24.0226L38.5 3.18768ZM57.7495 9.7612H60.9577V14.9734L57.7495 12.7776V9.7612ZM30.4793 37.8668H46.5206V61.7566H30.4793V37.8668Z" fill="white"/>
</svg>
